<svg width="27" height="27" viewBox="0 0 27 27" fill="none" xmlns="http://www.w3.org/2000/svg">
<g id="&#240;&#159;&#166;&#134; icon &#34;facebook outline&#34;" opacity="0.7">
<path id="Vector" d="M14.625 24.7499H10.125C9.82663 24.7499 9.54048 24.6314 9.3295 24.4204C9.11853 24.2095 9 23.9233 9 23.6249V16.6499H6.75C6.45163 16.6499 6.16548 16.5314 5.95451 16.3204C5.74353 16.1095 5.625 15.8233 5.625 15.5249V11.4749C5.625 11.1766 5.74353 10.8904 5.95451 10.6795C6.16548 10.4685 6.45163 10.3499 6.75 10.3499H9V8.43745C9.07886 6.72335 9.8332 5.1102 11.0981 3.95071C12.363 2.79122 14.0355 2.17974 15.75 2.24995H19.125C19.4234 2.24995 19.7095 2.36848 19.9205 2.57945C20.1315 2.79043 20.25 3.07658 20.25 3.37495V7.42495C20.25 7.72332 20.1315 8.00947 19.9205 8.22044C19.7095 8.43142 19.4234 8.54995 19.125 8.54995H15.75V10.3499H19.125C19.2987 10.3486 19.4704 10.3876 19.6265 10.4637C19.7826 10.5398 19.919 10.651 20.025 10.7887C20.1298 10.9284 20.2006 11.0906 20.2319 11.2625C20.2631 11.4343 20.2539 11.611 20.205 11.7787L19.08 15.8287C19.0119 16.072 18.864 16.2854 18.6599 16.4344C18.4558 16.5833 18.2075 16.6593 17.955 16.6499H15.75V23.6249C15.75 23.9233 15.6315 24.2095 15.4205 24.4204C15.2095 24.6314 14.9234 24.7499 14.625 24.7499ZM11.25 22.4999H13.5V15.5249C13.5 15.2266 13.6185 14.9404 13.8295 14.7295C14.0405 14.5185 14.3266 14.3999 14.625 14.3999H17.145L17.64 12.5999H14.625C14.3266 12.5999 14.0405 12.4814 13.8295 12.2704C13.6185 12.0595 13.5 11.7733 13.5 11.4749V8.43745C13.5289 7.86042 13.7786 7.31662 14.1975 6.9187C14.6164 6.52078 15.1723 6.29923 15.75 6.29995H18V4.49995H15.75C14.6327 4.43187 13.5335 4.80711 12.6911 5.54425C11.8487 6.28138 11.3308 7.32096 11.25 8.43745V11.4749C11.25 11.7733 11.1315 12.0595 10.9205 12.2704C10.7095 12.4814 10.4234 12.5999 10.125 12.5999H7.875V14.3999H10.125C10.4234 14.3999 10.7095 14.5185 10.9205 14.7295C11.1315 14.9404 11.25 15.2266 11.25 15.5249V22.4999Z" fill="white"/>
</g>
</svg>
