<svg width="70" height="69" viewBox="0 0 70 69" fill="none" xmlns="http://www.w3.org/2000/svg">
<g id="Frame 14">
<circle id="Ellipse 10" cx="35" cy="34.5" r="33" transform="rotate(-180 35 34.5)" fill="#52057B" stroke="#52057B" stroke-width="3"/>
<g id="&#240;&#159;&#166;&#134; icon &#34;angle-left-b&#34;">
<path id="Vector" d="M28.1678 36.4781L39.2638 47.3794C40.0425 48.1581 41.2105 48.1581 41.9892 47.3794C42.7679 46.6007 42.7679 45.4327 41.9892 44.6541L32.4505 34.9207L41.9892 25.1874C42.7679 24.4087 42.7679 23.2407 41.9892 22.4621C41.5999 22.0727 41.2105 21.8781 40.6265 21.8781C40.0425 21.8781 39.6532 22.0727 39.2638 22.4621L28.1678 33.3634C27.3892 34.3367 27.3892 35.5047 28.1678 36.4781C28.1678 36.2834 28.1678 36.2834 28.1678 36.4781Z" fill="white"/>
</g>
</g>
</svg>
