<svg width="188" height="45" viewBox="0 0 188 45" fill="none" xmlns="http://www.w3.org/2000/svg">
<ellipse cx="45" cy="10" rx="4" ry="4.5" fill="#D9D9D9"/>
<ellipse cx="32" cy="10" rx="5" ry="4.5" fill="#D9D9D9"/>
<circle cx="19.5" cy="10" r="4.5" fill="#D9D9D9"/>
<ellipse cx="19.5" cy="23" rx="4.5" ry="5.5" fill="#D9D9D9"/>
<circle cx="19.5" cy="36" r="4.5" fill="#D9D9D9"/>
<ellipse cx="32" cy="36" rx="5" ry="4.5" fill="#D9D9D9"/>
<ellipse cx="31.5" cy="22.5" rx="1.5" ry="1" fill="#D9D9D9"/>
<circle cx="44.5" cy="23" r="1.5" fill="#D9D9D9"/>
<circle cx="44.5" cy="35" r="1.5" fill="#D9D9D9"/>
<path d="M34 13.5C37.2436 10.7699 39.2188 10.8223 43 13.5V6.5C39.4856 7.85863 37.5145 7.88516 34 6.5V13.5Z" fill="#D9D9D9"/>
<path d="M22 14.5C25.2436 11.3798 27.2188 11.4398 31 14.5V6.5C27.4856 8.05272 25.5145 8.08304 22 6.5V14.5Z" fill="#D9D9D9"/>
<path d="M22 39.5C25.2436 36.3798 27.2188 36.4398 31 39.5V31.5C27.4856 33.0527 25.5145 33.083 22 31.5V39.5Z" fill="#D9D9D9"/>
<path d="M16.2116 12.0289C18.8601 15.5136 18.8035 17.6313 16.1864 21.6787L23.0004 21.6965C21.6877 17.9249 21.6674 15.8114 23.0257 12.0467L16.2116 12.0289Z" fill="#D9D9D9"/>
<path d="M16.2116 24.5845C18.8601 28.0692 18.8035 30.1869 16.1864 34.2343L23.0004 34.2521C21.6877 30.4805 21.6674 28.367 23.0257 24.6023L16.2116 24.5845Z" fill="#D9D9D9"/>
<path d="M73.075 25.275C73.075 23.575 73.4583 22.05 74.225 20.7C74.9917 19.3333 76.0333 18.2667 77.35 17.5C78.6833 16.7333 80.1583 16.35 81.775 16.35C83.675 16.35 85.3333 16.8083 86.75 17.725C88.1667 18.6417 89.2 19.9417 89.85 21.625H87.125C86.6417 20.575 85.9417 19.7667 85.025 19.2C84.125 18.6333 83.0417 18.35 81.775 18.35C80.5583 18.35 79.4667 18.6333 78.5 19.2C77.5333 19.7667 76.775 20.575 76.225 21.625C75.675 22.6583 75.4 23.875 75.4 25.275C75.4 26.6583 75.675 27.875 76.225 28.925C76.775 29.9583 77.5333 30.7583 78.5 31.325C79.4667 31.8917 80.5583 32.175 81.775 32.175C83.0417 32.175 84.125 31.9 85.025 31.35C85.9417 30.7833 86.6417 29.975 87.125 28.925H89.85C89.2 30.5917 88.1667 31.8833 86.75 32.8C85.3333 33.7 83.675 34.15 81.775 34.15C80.1583 34.15 78.6833 33.775 77.35 33.025C76.0333 32.2583 74.9917 31.2 74.225 29.85C73.4583 28.5 73.075 26.975 73.075 25.275ZM99.2115 34.225C97.9282 34.225 96.7615 33.9333 95.7115 33.35C94.6782 32.7667 93.8615 31.9417 93.2615 30.875C92.6782 29.7917 92.3865 28.5417 92.3865 27.125C92.3865 25.725 92.6865 24.4917 93.2865 23.425C93.9032 22.3417 94.7365 21.5167 95.7865 20.95C96.8365 20.3667 98.0115 20.075 99.3115 20.075C100.612 20.075 101.787 20.3667 102.837 20.95C103.887 21.5167 104.712 22.3333 105.312 23.4C105.928 24.4667 106.237 25.7083 106.237 27.125C106.237 28.5417 105.92 29.7917 105.287 30.875C104.67 31.9417 103.828 32.7667 102.762 33.35C101.695 33.9333 100.512 34.225 99.2115 34.225ZM99.2115 32.225C100.028 32.225 100.795 32.0333 101.512 31.65C102.228 31.2667 102.803 30.6917 103.237 29.925C103.687 29.1583 103.912 28.225 103.912 27.125C103.912 26.025 103.695 25.0917 103.262 24.325C102.828 23.5583 102.262 22.9917 101.562 22.625C100.862 22.2417 100.103 22.05 99.2865 22.05C98.4532 22.05 97.6865 22.2417 96.9865 22.625C96.3032 22.9917 95.7532 23.5583 95.3365 24.325C94.9199 25.0917 94.7115 26.025 94.7115 27.125C94.7115 28.2417 94.9115 29.1833 95.3115 29.95C95.7282 30.7167 96.2782 31.2917 96.9615 31.675C97.6449 32.0417 98.3949 32.225 99.2115 32.225ZM110.403 18.075C109.969 18.075 109.603 17.925 109.303 17.625C109.003 17.325 108.853 16.9583 108.853 16.525C108.853 16.0917 109.003 15.725 109.303 15.425C109.603 15.125 109.969 14.975 110.403 14.975C110.819 14.975 111.169 15.125 111.453 15.425C111.753 15.725 111.903 16.0917 111.903 16.525C111.903 16.9583 111.753 17.325 111.453 17.625C111.169 17.925 110.819 18.075 110.403 18.075ZM111.503 20.3V34H109.228V20.3H111.503ZM122.055 20.05C123.722 20.05 125.072 20.5583 126.105 21.575C127.138 22.575 127.655 24.025 127.655 25.925V34H125.405V26.25C125.405 24.8833 125.063 23.8417 124.38 23.125C123.697 22.3917 122.763 22.025 121.58 22.025C120.38 22.025 119.422 22.4 118.705 23.15C118.005 23.9 117.655 24.9917 117.655 26.425V34H115.38V20.3H117.655V22.25C118.105 21.55 118.713 21.0083 119.48 20.625C120.263 20.2417 121.122 20.05 122.055 20.05ZM130.521 27.1C130.521 25.7 130.805 24.475 131.371 23.425C131.938 22.3583 132.713 21.5333 133.696 20.95C134.696 20.3667 135.813 20.075 137.046 20.075C138.113 20.075 139.105 20.325 140.021 20.825C140.938 21.3083 141.638 21.95 142.121 22.75V15.5H144.421V34H142.121V31.425C141.671 32.2417 141.005 32.9167 140.121 33.45C139.238 33.9667 138.205 34.225 137.021 34.225C135.805 34.225 134.696 33.925 133.696 33.325C132.713 32.725 131.938 31.8833 131.371 30.8C130.805 29.7167 130.521 28.4833 130.521 27.1ZM142.121 27.125C142.121 26.0917 141.913 25.1917 141.496 24.425C141.08 23.6583 140.513 23.075 139.796 22.675C139.096 22.2583 138.321 22.05 137.471 22.05C136.621 22.05 135.846 22.25 135.146 22.65C134.446 23.05 133.888 23.6333 133.471 24.4C133.055 25.1667 132.846 26.0667 132.846 27.1C132.846 28.15 133.055 29.0667 133.471 29.85C133.888 30.6167 134.446 31.2083 135.146 31.625C135.846 32.025 136.621 32.225 137.471 32.225C138.321 32.225 139.096 32.025 139.796 31.625C140.513 31.2083 141.08 30.6167 141.496 29.85C141.913 29.0667 142.121 28.1583 142.121 27.125ZM160.766 26.625C160.766 27.0583 160.741 27.5167 160.691 28H149.741C149.824 29.35 150.282 30.4083 151.116 31.175C151.966 31.925 152.991 32.3 154.191 32.3C155.174 32.3 155.991 32.075 156.641 31.625C157.307 31.1583 157.774 30.5417 158.041 29.775H160.491C160.124 31.0917 159.391 32.1667 158.291 33C157.191 33.8167 155.824 34.225 154.191 34.225C152.891 34.225 151.724 33.9333 150.691 33.35C149.674 32.7667 148.874 31.9417 148.291 30.875C147.707 29.7917 147.416 28.5417 147.416 27.125C147.416 25.7083 147.699 24.4667 148.266 23.4C148.832 22.3333 149.624 21.5167 150.641 20.95C151.674 20.3667 152.857 20.075 154.191 20.075C155.491 20.075 156.641 20.3583 157.641 20.925C158.641 21.4917 159.407 22.275 159.941 23.275C160.491 24.2583 160.766 25.375 160.766 26.625ZM158.416 26.15C158.416 25.2833 158.224 24.5417 157.841 23.925C157.457 23.2917 156.932 22.8167 156.266 22.5C155.616 22.1667 154.891 22 154.091 22C152.941 22 151.957 22.3667 151.141 23.1C150.341 23.8333 149.882 24.85 149.766 26.15H158.416ZM168.619 34.225C167.569 34.225 166.627 34.05 165.794 33.7C164.96 33.3333 164.302 32.8333 163.819 32.2C163.335 31.55 163.069 30.8083 163.019 29.975H165.369C165.435 30.6583 165.752 31.2167 166.319 31.65C166.902 32.0833 167.66 32.3 168.594 32.3C169.46 32.3 170.144 32.1083 170.644 31.725C171.144 31.3417 171.394 30.8583 171.394 30.275C171.394 29.675 171.127 29.2333 170.594 28.95C170.06 28.65 169.235 28.3583 168.119 28.075C167.102 27.8083 166.269 27.5417 165.619 27.275C164.985 26.9917 164.435 26.5833 163.969 26.05C163.519 25.5 163.294 24.7833 163.294 23.9C163.294 23.2 163.502 22.5583 163.919 21.975C164.335 21.3917 164.927 20.9333 165.694 20.6C166.46 20.25 167.335 20.075 168.319 20.075C169.835 20.075 171.06 20.4583 171.994 21.225C172.927 21.9917 173.427 23.0417 173.494 24.375H171.219C171.169 23.6583 170.877 23.0833 170.344 22.65C169.827 22.2167 169.127 22 168.244 22C167.427 22 166.777 22.175 166.294 22.525C165.81 22.875 165.569 23.3333 165.569 23.9C165.569 24.35 165.71 24.725 165.994 25.025C166.294 25.3083 166.66 25.5417 167.094 25.725C167.544 25.8917 168.16 26.0833 168.944 26.3C169.927 26.5667 170.727 26.8333 171.344 27.1C171.96 27.35 172.485 27.7333 172.919 28.25C173.369 28.7667 173.602 29.4417 173.619 30.275C173.619 31.025 173.41 31.7 172.994 32.3C172.577 32.9 171.985 33.375 171.219 33.725C170.469 34.0583 169.602 34.225 168.619 34.225ZM184.48 34L179.105 27.95V34H176.83V15.5H179.105V26.375L184.38 20.3H187.555L181.105 27.125L187.58 34H184.48Z" fill="white"/>
</svg>
