<svg width="23" height="23" viewBox="0 0 23 23" fill="none" xmlns="http://www.w3.org/2000/svg">
<g id="&#240;&#159;&#166;&#134; icon &#34;social youtube&#34;" opacity="0.7">
<g id="Group">
<path id="Vector" d="M9.96347 18.0136C9.74114 18.328 9.53062 18.4829 9.32937 18.4829C9.19521 18.4829 9.11886 18.4043 9.09458 18.2484C9.085 18.2162 9.085 18.0938 9.085 17.8587V13.7826H8.08258V18.1603C8.08258 18.5516 8.1158 18.8154 8.17107 18.9831C8.27105 19.2636 8.49403 19.3949 8.8173 19.3949C9.18594 19.3949 9.5648 19.1723 9.96315 18.7148V19.3189H10.9672V13.7829H9.96347V18.0136Z" fill="white"/>
<path id="Vector_2" d="M4.43933 12.9348H5.61936V19.3189H6.73486V12.9348H7.93661V11.8889H4.43933V12.9348Z" fill="white"/>
<path id="Vector_3" d="M11.2703 8.09478C11.5971 8.09478 11.7537 7.83603 11.7537 7.31821V4.96455C11.7537 4.44737 11.5971 4.18958 11.2703 4.18958C10.9432 4.18958 10.7864 4.44737 10.7864 4.96455V7.31821C10.7867 7.83571 10.9432 8.09478 11.2703 8.09478Z" fill="white"/>
<path id="Vector_4" d="M13.8747 13.7152C13.5061 13.7152 13.1624 13.9171 12.8388 14.3157V11.8889H11.8354V19.3189H12.8388V18.7816C13.1735 19.1965 13.5182 19.3949 13.8747 19.3949C14.2743 19.3949 14.5427 19.1847 14.6768 18.7729C14.7436 18.5382 14.7778 18.1695 14.7778 17.6574V15.453C14.7778 14.9291 14.7436 14.563 14.6768 14.3403C14.5424 13.9254 14.2743 13.7152 13.8747 13.7152ZM13.7747 17.736C13.7747 18.236 13.6275 18.4826 13.3384 18.4826C13.1735 18.4826 13.0062 18.404 12.8384 18.2363V14.8617C13.0062 14.6965 13.1732 14.6179 13.3384 14.6179C13.6278 14.6179 13.7747 14.8741 13.7747 15.3734V17.736Z" fill="white"/>
<path id="Vector_5" d="M17.0695 13.7155C16.5578 13.7155 16.1578 13.9042 15.8684 14.2834C15.655 14.5629 15.5582 14.9955 15.5582 15.5868V17.5264C15.5582 18.1142 15.6675 18.5515 15.8805 18.8278C16.1703 19.2057 16.5696 19.3949 17.0948 19.3949C17.6186 19.3949 18.0298 19.1965 18.3077 18.7953C18.4291 18.6167 18.5083 18.4158 18.5418 18.1937C18.5508 18.0931 18.5632 17.8701 18.5632 17.5475V17.4006H17.5394C17.5394 17.8031 17.527 18.0257 17.5177 18.0803C17.4605 18.3484 17.3161 18.4825 17.0695 18.4825C16.7252 18.4825 16.5578 18.227 16.5578 17.7146V16.7332H18.5636V15.5864C18.5636 14.9948 18.4629 14.5626 18.2531 14.2831C17.9723 13.9039 17.573 13.7155 17.0695 13.7155ZM17.5605 15.8985H16.5578V15.3865C16.5578 14.8747 16.7252 14.6185 17.0606 14.6185C17.3925 14.6185 17.5605 14.8747 17.5605 15.3865V15.8985Z" fill="white"/>
<path id="Vector_6" d="M20.7639 0H2.23611C1.00625 0 0 1.00625 0 2.23611V20.7639C0 21.9937 1.00625 23 2.23611 23H20.7639C21.9937 23 23 21.9937 23 20.7639V2.23611C23 1.00625 21.9937 0 20.7639 0ZM13.6019 3.34458H14.6123V7.46286C14.6123 7.70117 14.6123 7.82479 14.6248 7.85738C14.6472 8.01454 14.7264 8.09472 14.8625 8.09472C15.065 8.09472 15.2781 7.93756 15.5026 7.62003V3.34458H16.5166V8.93806H15.5026V8.32792C15.0992 8.79079 14.7142 9.01568 14.3447 9.01568C14.0182 9.01568 13.793 8.88311 13.6917 8.59944C13.6358 8.43046 13.6019 8.16245 13.6019 7.76761V3.34458ZM9.77276 5.16797C9.77276 4.57029 9.87467 4.13297 10.0903 3.85026C10.3708 3.46821 10.7656 3.27686 11.2703 3.27686C11.7782 3.27686 12.1724 3.46821 12.4532 3.85026C12.6653 4.13297 12.7679 4.57029 12.7679 5.16797V7.12776C12.7679 7.72193 12.6657 8.16276 12.4532 8.44356C12.1724 8.82465 11.7786 9.016 11.2703 9.016C10.7653 9.016 10.3704 8.82465 10.0903 8.44356C9.87467 8.16276 9.77276 7.72193 9.77276 7.12776V5.16797ZM7.06196 1.43175L7.86025 4.37926L8.6266 1.43175H9.76318L8.41129 5.89822V8.93806H7.28685V5.89822C7.18526 5.359 6.96037 4.56997 6.60004 3.52315C6.36301 2.82676 6.11608 2.12718 5.87937 1.43175H7.06196ZM19.5094 19.6516C19.3069 20.5342 18.5843 21.1852 17.7154 21.282C15.6569 21.512 13.5738 21.5133 11.5 21.512C9.42585 21.5133 7.34275 21.512 5.28457 21.282C4.41536 21.1849 3.69406 20.5339 3.49121 19.6516C3.20211 18.3942 3.20211 17.0219 3.20211 15.7282C3.20211 14.4331 3.20531 13.0618 3.49472 11.8041C3.69725 10.9218 4.41888 10.2711 5.28808 10.174C7.34626 9.94335 9.42936 9.94271 11.5035 9.94335C13.5773 9.94271 15.6604 9.94335 17.7189 10.174C18.5875 10.2711 19.3098 10.9218 19.5126 11.8041C19.8017 13.0621 19.8001 14.4331 19.8001 15.7282C19.8004 17.0219 19.7988 18.3942 19.5094 19.6516Z" fill="white"/>
</g>
</g>
</svg>
